<svg xmlns="http://www.w3.org/2000/svg" width="623" height="279" viewBox="0 0 623 279">
<g>
<path d="M 472.36 246.11 L 467.50 248.50 L 322.50 248.70 C180.05,248.90 177.41,248.87 172.36,246.92 C169.53,245.83 165.05,242.93 162.41,240.47 C159.77,238.01 157.35,236.00 157.02,236.00 C156.69,236.00 154.66,236.90 152.50,238.00 C142.77,242.96 130.06,237.08 127.04,226.22 C125.74,221.52 125.78,220.36 127.41,215.78 L 128.74 212.07 L 125.43 210.98 C117.39,208.32 113.06,201.53 113.02,191.50 L 112.99 185.50 L 105.85 181.62 C94.01,175.16 81.31,161.83 72.62,146.70 L 69.86 141.91 L 72.59 137.20 C83.06,119.17 96.83,105.46 109.91,100.04 C112.92,98.79 113.00,98.59 113.00,92.19 C113.00,83.70 115.56,78.18 120.89,75.18 C123.02,73.98 125.47,73.00 126.33,73.00 C128.77,73.00 128.97,71.76 127.36,66.84 C125.40,60.91 126.79,55.35 131.52,50.11 C137.03,44.01 145.05,42.48 152.88,46.03 L 157.26 48.02 L 161.70 43.92 C164.15,41.67 168.25,38.85 170.82,37.66 L 175.50 35.50 L 467.50 35.50 L 472.50 37.96 C475.25,39.31 479.41,42.18 481.75,44.33 C484.84,47.18 486.34,47.97 487.25,47.23 C489.84,45.11 496.82,43.75 501.48,44.44 C507.12,45.29 513.31,50.39 515.04,55.61 C516.18,59.08 515.93,66.48 514.51,70.75 C513.88,72.66 514.13,73.00 516.13,73.00 C519.53,73.01 524.69,76.45 527.01,80.24 C528.50,82.69 528.99,85.28 529.00,90.66 L 529.00 97.82 L 536.75 102.07 C548.78,108.66 559.81,120.01 569.37,135.61 L 573.11 141.72 L 569.95 147.09 C559.76,164.37 547.40,176.77 533.25,183.90 L 529.00 186.04 L 529.00 193.27 C528.99,198.72 528.50,201.30 527.01,203.76 C524.70,207.55 519.53,210.99 516.14,211.00 C514.28,211.00 513.94,211.37 514.53,212.75 C514.94,213.71 515.49,217.02 515.75,220.09 C516.43,228.26 513.04,234.41 505.79,238.11 C501.00,240.55 496.05,240.51 490.14,237.96 L 485.40 235.93 L 481.31 239.82 C479.05,241.97 475.03,244.80 472.36,246.11 Z" fill="rgb(52,48,49)"/>
<path d="M 0.00 139.50 L 0.00 0.00 L 311.50 0.00 L 623.00 0.00 L 623.00 139.50 L 623.00 279.00 L 311.50 279.00 L 0.00 279.00 L 0.00 139.50 ZM 472.36 246.11 C475.03,244.80 479.05,241.97 481.31,239.82 L 485.40 235.93 L 490.14 237.96 C496.05,240.51 501.00,240.55 505.79,238.11 C513.04,234.41 516.43,228.26 515.75,220.09 C515.49,217.02 514.94,213.71 514.53,212.75 C513.94,211.37 514.28,211.00 516.14,211.00 C519.53,210.99 524.70,207.55 527.01,203.76 C528.50,201.30 528.99,198.72 529.00,193.27 L 529.00 186.04 L 533.25 183.90 C547.40,176.77 559.76,164.37 569.95,147.09 L 573.11 141.72 L 569.37 135.61 C559.81,120.01 548.78,108.66 536.75,102.07 L 529.00 97.82 L 529.00 90.66 C528.99,85.28 528.50,82.69 527.01,80.24 C524.69,76.45 519.53,73.01 516.13,73.00 C514.13,73.00 513.88,72.66 514.51,70.75 C515.93,66.48 516.18,59.08 515.04,55.61 C513.31,50.39 507.12,45.29 501.48,44.44 C496.82,43.75 489.84,45.11 487.25,47.23 C486.34,47.97 484.84,47.18 481.75,44.33 C479.41,42.18 475.25,39.31 472.50,37.96 L 467.50 35.50 L 321.50 35.50 L 175.50 35.50 L 170.82 37.66 C168.25,38.85 164.15,41.67 161.70,43.92 L 157.26 48.02 L 152.88 46.03 C145.05,42.48 137.03,44.01 131.52,50.11 C126.79,55.35 125.40,60.91 127.36,66.84 C128.97,71.76 128.77,73.00 126.33,73.00 C125.47,73.00 123.02,73.98 120.89,75.18 C115.56,78.18 113.00,83.70 113.00,92.19 C113.00,98.59 112.92,98.79 109.91,100.04 C96.83,105.46 83.06,119.17 72.59,137.20 L 69.86 141.91 L 72.62 146.70 C81.31,161.83 94.01,175.16 105.85,181.62 L 112.99 185.50 L 113.02 191.50 C113.06,201.53 117.39,208.32 125.43,210.98 L 128.74 212.07 L 127.41 215.78 C125.78,220.36 125.74,221.52 127.04,226.22 C130.06,237.08 142.77,242.96 152.50,238.00 C154.66,236.90 156.69,236.00 157.02,236.00 C157.35,236.00 159.77,238.01 162.41,240.47 C165.05,242.93 169.53,245.83 172.36,246.92 C177.41,248.87 180.05,248.90 322.50,248.70 L 467.50 248.50 L 472.36 246.11 Z" fill="rgb(254,254,254)"/>
</g>
</svg>